# xmcd
#
# Track frame offsets:
#	150
#	10538
#	29271
#	42986
#	57458
#	77548
#	90646
#	102028
#	115768
#	129531
#	140893
#	167091
#
# Disc length: 2437 seconds
#
# Revision: 1
# Processed by: cddbd v1.5.2PL0 Copyright (c) Steve Scherf et al.
# Submitted via: audiograbber 1.83.01
#
DISCID=9409830c
DTITLE=Martinho da Vila - Novas Palavras
DYEAR=1983
DGENRE=Samba
TTITLE0=Balaio de Gato e Rato
TTITLE1=Partido Alto da Antiga - Um caso Sério/Partideiro Famoso/Sua Filha
TTITLE2=Conflito Interior
TTITLE3=Vieram me Contar
TTITLE4=Rodoa de Samba de Roda/Xodó de Mãe/Paquete da Sobara/Micareta/Pega na G
TTITLE4=alha
TTITLE5=Linda Madalena
TTITLE6=Salgueiro na Avenida
TTITLE7=À Volta da Fogueira
TTITLE8=Negros Odores
TTITLE9=Foi Ela
TTITLE10=Festa de Candomblé
TTITLE11=Clara Nunes
EXTD=
EXTT0=
EXTT1=
EXTT2=
EXTT3=
EXTT4=
EXTT5=
EXTT6=
EXTT7=
EXTT8=
EXTT9=
EXTT10=
EXTT11=
PLAYORDER=
